<svg width="281" height="260" fill="none" xmlns="http://www.w3.org/2000/svg"><path d="M6.311 91.047h267.66c3.594 0 6.332-3.164 5.93-6.738C274.6 37.172 214.053 0 140.141 0 66.229 0 5.681 37.172.381 84.312c-.406 3.566 2.332 6.734 5.93 6.734v.001ZM273.972 209.637H6.312c-3.594 0-6.332 1.727-5.93 3.672 5.3 25.699 65.848 45.965 139.76 45.965 73.912 0 134.46-20.266 139.76-45.965.406-1.945-2.34-3.672-5.93-3.672ZM257.582 125.567H94.192l-8.344 14.449c-5.824 10.09-20.391 10.09-26.215 0l-8.344-14.449H22.695C10.164 125.567 0 135.727 0 148.262v4.145c0 12.531 10.16 22.695 22.695 22.695h234.89c12.531 0 22.695-10.16 22.695-22.695v-4.145c0-12.531-10.156-22.695-22.691-22.695h-.007Z" fill="#7D7D7D"/></svg>