<svg width="545" height="431" fill="none" xmlns="http://www.w3.org/2000/svg"><path d="M541.419 243.422c-2.012-2.781-22.887-31.246-57.008-63.801l44.707-44.727c8.114-8.09 8.114-21.223 0-29.293-8.07-8.11-21.207-8.11-29.301 0l-46.605 46.598c-16.285-13.137-34.371-25.988-54.039-37.195l30.047-49.641c5.918-9.8 2.793-22.543-7.008-28.473-9.793-5.941-22.543-2.781-28.461 7l-31.969 52.852c-18.535-7.566-38.055-13.246-58.316-16.207V20.738C303.466 9.297 294.189 0 282.728 0c-11.441 0-20.719 9.297-20.719 20.738v57.781c-27.703 1.367-54.184 8.137-78.941 18.23l-31.965-52.832c-5.91-9.793-18.668-12.969-28.465-7.012-9.789 5.93-12.922 18.668-7 28.473l30.047 49.641c-19.645 11.199-37.758 24.062-54.039 37.207L45.03 105.609c-8.09-8.11-21.223-8.11-29.312 0-8.09 8.071-8.09 21.211 0 29.293l44.742 44.727c-34.137 32.547-55.004 61.02-57.02 63.801a18.246 18.246 0 0 0 0 21.324c4.891 6.742 120.99 165.26 269 165.26 148.02 0 264.1-158.52 268.99-165.27a18.228 18.228 0 0 0-.007-21.32l-.003-.002Zm-268.98 134.16c-68.082 0-123.49-55.395-123.49-123.52 0-68.102 55.402-123.5 123.49-123.5 68.109 0 123.52 55.402 123.52 123.5 0 68.117-55.414 123.52-123.52 123.52Zm-231.09-123.52c17.402-21.391 60.699-70.348 117.2-104.15-25.176 27.52-40.691 64.016-40.691 104.15 0 40.172 15.512 76.656 40.707 104.18-56.488-33.809-99.8-82.762-117.21-104.18h-.006Zm344.78 104.4c25.293-27.539 40.887-64.133 40.887-104.39 0-40.141-15.512-76.625-40.688-104.15 56.504 33.836 99.805 82.793 117.2 104.18-17.391 21.434-60.734 70.535-117.4 104.36h.001Z" fill="#7D7D7D"/><path d="M272.449 182.642c-5.047 0-9.941.516-14.68 1.531 10.387 6.801 17.273 18.492 17.273 31.82 0 21.043-17.043 38.074-38.074 38.074-14.324 0-26.645-7.976-33.141-19.664-1.793 6.254-2.812 12.844-2.812 19.664 0 39.449 31.98 71.418 71.43 71.418 39.43 0 71.418-31.969 71.418-71.418.004-39.445-31.98-71.426-71.414-71.426v.001Z" fill="#7D7D7D"/></svg>