<svg width="537" height="537" fill="none" xmlns="http://www.w3.org/2000/svg"><path fill-rule="evenodd" clip-rule="evenodd" d="M183.14 183.14V52.23C183.14 23.8 206.281 0 235.37 0h66.777c28.43 0 52.23 23.801 52.23 52.23v130.91h130.91c28.43 0 51.57 23.141 51.57 52.23v66.777c0 28.43-23.141 52.23-51.57 52.23h-130.91v130.91c0 28.43-23.801 51.57-52.23 51.57H235.37c-29.09 0-52.23-23.141-52.23-51.57v-130.91H52.23C23.8 354.377 0 330.576 0 302.147V235.37c0-29.09 23.801-52.23 52.23-52.23h130.91ZM22.48 225.452c5.29-3.969 11.902-6.613 19.172-6.613h151.41v-15.207H52.232c-13.883 0-25.785 9.257-29.754 21.816l.002.004Zm183.14-183.14c5.289-3.969 11.902-6.613 19.172-6.613h66.777c17.191 0 31.074 14.547 31.074 31.734v151.41h151.41c17.852 0 31.734 13.883 31.734 31.734v66.777c0 3.304-.66 6.613-1.324 9.918 7.273-5.95 11.902-15.207 11.902-25.125V235.37c0-17.191-13.883-31.734-31.074-31.734h-151.41V52.226c0-17.191-14.547-31.734-31.734-31.734H235.37c-13.883 0-25.785 9.258-29.754 21.816l.004.004Zm128.27 306.12h-11.238v151.41c0 3.969-.66 7.273-1.324 9.918 7.273-5.289 12.562-14.547 12.562-24.461V348.432Z" fill="#7D7D7D"/></svg>