<svg width="840" height="1079" fill="none" xmlns="http://www.w3.org/2000/svg"><path d="M377.14 308.58c85.715 0 154.29-68.57 154.29-154.29C531.43 68.575 462.86 0 377.14 0c-85.715 0-154.29 68.57-154.29 154.29 0 85.711 68.57 154.29 154.29 154.29Zm0-258.86C433.71 49.72 480 96.005 480 152.58c0 56.57-46.285 102.86-102.86 102.86-56.57 0-102.86-46.285-102.86-102.86-.004-56.57 44.57-102.86 102.86-102.86ZM809.14 708.01C752.566 469.72 514.28 320.58 276 375.44 161.14 402.87 61.71 473.155 0 574.3l44.57 27.43c114.86-183.43 356.57-240 540-126.86 89.145 54.855 150.86 142.29 174.86 243.43 24 101.14 6.855 207.43-48 296.57L756 1042.3c60.004-99.43 78.863-219.43 53.148-334.29h-.008Z" fill="#725BFF"/><path d="M396.14 344.58c85.715 0 154.29-68.57 154.29-154.29C550.43 104.575 481.86 36 396.14 36c-85.715 0-154.29 68.57-154.29 154.29 0 85.711 68.57 154.29 154.29 154.29Zm0-258.86c56.57 0 102.86 46.285 102.86 102.86 0 56.57-46.285 102.86-102.86 102.86-56.57 0-102.86-46.285-102.86-102.86-.004-56.57 44.57-102.86 102.86-102.86ZM828.14 744.01C771.566 505.72 533.28 356.58 295 411.44 180.14 438.87 80.71 509.155 19 610.3l44.57 27.43c114.86-183.43 356.57-240 540-126.86 89.145 54.855 150.86 142.29 174.86 243.43 24 101.14 6.855 207.43-48 296.57L775 1078.3c60.004-99.43 78.863-219.43 53.148-334.29h-.008Z" fill="#FAFF00"/></svg>