<svg width="488" height="202" fill="none" xmlns="http://www.w3.org/2000/svg"><path d="m331.846 102.15-113.09-91.656-19.688 190.75h268.52l19.578-190.42-142.52 91.984c-4.047 2.515-9.187 2.297-12.797-.656l-.003-.002Z" fill="#7D7D7D"/><path d="M463.196 0h-222.47l98.656 79.953L463.196 0ZM44.186 111.56h81.375c6.016 0 10.938-4.922 10.938-10.938 0-6.016-4.922-10.938-10.938-10.938H44.186c-6.016 0-10.938 4.922-10.938 10.938a10.9 10.9 0 0 0 10.938 10.938ZM136.496 173.24c0-6.016-4.922-10.938-10.938-10.938H10.938C4.922 162.302 0 167.224 0 173.24c0 6.016 4.922 10.938 10.938 10.938h114.62a10.9 10.9 0 0 0 10.938-10.938ZM79.516 38.93h46.047c6.016 0 10.938-4.922 10.938-10.938 0-6.016-4.922-10.938-10.938-10.938H79.516c-6.016 0-10.938 4.922-10.938 10.938 0 6.016 4.922 10.938 10.938 10.938Z" fill="#7D7D7D"/></svg>