<svg width="435" height="437" viewBox="0 0 435 437" fill="none" xmlns="http://www.w3.org/2000/svg">
<path d="M211.609 196H420.488C428.887 196 435.61 188.16 433.93 180.32C415.45 77.84 326.409 0 218.889 0C92.8895 0 -7.9105 106.4 0.489504 234.08C8.3293 342.72 97.3685 430.08 206.01 436.24C319.13 442.959 414.89 362.881 433.93 256.48C435.609 248.082 431.129 240.8 422.73 240.8H209.931L251.372 281.12C259.77 289.518 261.45 304.081 253.051 313.042C244.653 322.561 229.531 323.12 220.571 314.163L141.61 234.081C132.649 225.12 132.649 211.12 141.61 202.159L220.008 123.761C227.848 115.921 240.168 113.683 249.688 120.402C261.45 128.8 262.567 145.043 253.048 154.562L211.609 196Z" fill="white"/>
</svg>
