<svg width="281" height="260" viewBox="0 0 281 260" fill="none" xmlns="http://www.w3.org/2000/svg">
<path d="M6.31112 91.0473H273.971C277.565 91.0473 280.303 87.8832 279.901 84.309C274.6 37.172 214.053 0 140.141 0C66.2288 0 5.68082 37.172 0.380823 84.312C-0.0254273 87.8784 2.71283 91.0464 6.31053 91.0464L6.31112 91.0473Z" fill="#7D7D7D"/>
<path d="M273.972 209.637H6.31175C2.71795 209.637 -0.020253 211.364 0.382047 213.309C5.68285 239.008 66.2301 259.274 140.142 259.274C214.054 259.274 274.602 239.008 279.902 213.309C280.308 211.364 277.562 209.637 273.972 209.637H273.972Z" fill="#7D7D7D"/>
<path d="M257.582 125.567H94.1916L85.8478 140.016C80.0236 150.106 65.4568 150.106 59.6328 140.016L51.289 125.567H22.695C10.164 125.567 0 135.727 0 148.262V152.407C0 164.938 10.16 175.102 22.695 175.102H257.585C270.116 175.102 280.28 164.942 280.28 152.407V148.262C280.28 135.731 270.124 125.567 257.589 125.567H257.582Z" fill="#7D7D7D"/>
</svg>
