<svg width="613" height="345" viewBox="0 0 613 345" fill="none" xmlns="http://www.w3.org/2000/svg">
<path fill-rule="evenodd" clip-rule="evenodd" d="M21.874 28.4053C25.206 34.4092 31.5068 44.4523 40.714 57.2023C55.941 78.2803 73.956 99.3433 94.745 119.038C154.768 175.905 225.495 210.311 306.245 210.311C386.995 210.311 457.725 175.905 517.745 119.041C538.534 99.3463 556.55 78.2833 571.776 57.2053C580.979 44.4553 587.28 34.4203 590.616 28.4083C595.745 19.1778 592.417 7.54127 583.186 2.41227C573.956 -2.71663 562.319 0.611475 557.19 9.84198C554.557 14.592 549.054 23.369 540.776 34.822C526.874 54.072 510.385 73.338 491.444 91.287C437.964 141.955 376.054 172.072 306.244 172.072C236.434 172.072 174.524 141.955 121.034 91.275C102.089 73.33 85.6043 54.06 71.7023 34.81C63.4328 23.357 57.9293 14.58 55.2883 9.82997C50.1672 0.607274 38.5303 -2.71702 29.3003 2.40808C20.0698 7.53698 16.7413 19.1741 21.8706 28.4041L21.874 28.4053ZM568.494 147.785C561.205 139.973 548.814 139.684 541.318 146.676C533.591 153.879 533.357 166.172 540.529 173.864L579.334 215.477C586.623 223.289 599.014 223.578 606.51 216.586C614.236 209.383 614.471 197.09 607.299 189.398L568.494 147.785ZM461.534 223.91C456.198 214.66 444.182 211.59 435.3 216.719C426.155 221.996 423.155 233.922 428.413 243.031L456.866 292.312C462.202 301.562 474.218 304.632 483.1 299.503C492.245 294.226 495.245 282.3 489.987 273.191L461.534 223.91ZM287.134 267.894C287.134 257.21 296.005 248.546 306.251 248.546C316.813 248.546 325.368 257.367 325.368 267.894V324.796C325.368 335.48 316.497 344.144 306.251 344.144C295.689 344.144 287.134 335.324 287.134 324.796V267.894ZM150.964 223.91C156.312 214.66 168.316 211.59 177.198 216.719C186.342 221.996 189.343 233.922 184.085 243.031L155.632 292.312C150.284 301.562 138.28 304.632 129.398 299.503C120.253 294.226 117.253 282.3 122.511 273.191L150.964 223.91ZM44.004 147.785C51.2931 139.973 63.684 139.684 71.18 146.676C78.9066 153.879 79.1409 166.172 71.969 173.864L33.164 215.485C25.8749 223.297 13.484 223.586 5.98803 216.594C-1.73857 209.391 -1.97286 197.098 5.19898 189.406L44.004 147.785Z" fill="#7D7D7D"/>
</svg>
