<svg width="545" height="431" viewBox="0 0 545 431" fill="none" xmlns="http://www.w3.org/2000/svg">
<path d="M541.419 243.422C539.407 240.641 518.532 212.176 484.411 179.621L529.118 134.894C537.232 126.804 537.232 113.671 529.118 105.601C521.048 97.4916 507.911 97.4916 499.817 105.601L453.212 152.199C436.927 139.062 418.841 126.211 399.173 115.004L429.22 65.363C435.138 55.5622 432.013 42.82 422.212 36.89C412.419 30.9486 399.669 34.1088 393.751 43.89L361.782 96.742C343.247 89.1756 323.727 83.496 303.466 80.535V20.738C303.466 9.297 294.189 0 282.728 0C271.287 0 262.009 9.2969 262.009 20.738V78.519C234.306 79.8862 207.825 86.6557 183.068 96.749L151.103 43.917C145.193 34.124 132.435 30.948 122.638 36.9053C112.849 42.835 109.716 55.5733 115.638 65.3783L145.685 115.019C126.04 126.218 107.927 139.081 91.6464 152.226L45.0294 105.609C36.9396 97.4999 23.8064 97.4999 15.7174 105.609C7.62762 113.68 7.62762 126.82 15.7174 134.902L60.4594 179.629C26.3224 212.176 5.45543 240.649 3.43942 243.43C-1.14647 249.798 -1.14647 258.371 3.43942 264.754C8.33003 271.496 124.429 430.014 272.439 430.014C420.459 430.014 536.539 271.494 541.429 264.744C546.015 258.369 546.015 249.795 541.422 243.424L541.419 243.422ZM272.439 377.582C204.357 377.582 148.949 322.187 148.949 254.062C148.949 185.96 204.351 130.562 272.439 130.562C340.548 130.562 395.959 185.964 395.959 254.062C395.959 322.179 340.545 377.582 272.439 377.582ZM41.3492 254.062C58.7512 232.671 102.048 183.714 158.549 149.912C133.373 177.432 117.858 213.928 117.858 254.062C117.858 294.234 133.37 330.718 158.565 358.242C102.077 324.433 58.7642 275.48 41.3552 254.062H41.3492ZM386.129 358.462C411.422 330.923 427.016 294.329 427.016 254.072C427.016 213.931 411.504 177.447 386.328 149.922C442.832 183.758 486.133 232.715 503.528 254.102C486.137 275.536 442.794 324.637 386.128 358.462H386.129Z" fill="#7D7D7D"/>
<path d="M272.449 182.642C267.402 182.642 262.508 183.158 257.769 184.173C268.156 190.974 275.042 202.665 275.042 215.993C275.042 237.036 257.999 254.067 236.968 254.067C222.644 254.067 210.323 246.091 203.827 234.403C202.034 240.657 201.015 247.247 201.015 254.067C201.015 293.516 232.995 325.485 272.445 325.485C311.875 325.485 343.863 293.516 343.863 254.067C343.867 214.622 311.883 182.641 272.449 182.641L272.449 182.642Z" fill="#7D7D7D"/>
</svg>
