<svg width="385" height="525" viewBox="0 0 385 525" fill="none" xmlns="http://www.w3.org/2000/svg">
<path fill-rule="evenodd" clip-rule="evenodd" d="M192.5 0C86.26 0 0 86.258 0 192.5C0 262.887 39.934 395.45 98.438 468.63C126.352 503.579 158.899 524.997 192.5 524.997C226.101 524.997 258.648 503.575 286.562 468.63C345.066 395.446 385 262.88 385 192.5C385 86.26 298.742 0 192.5 0V0ZM192.5 35C279.422 35 350 105.578 350 192.5C350 248.219 322.594 346.03 280.84 415.41C267.418 437.687 252.559 457.008 236.461 470.656C222.566 482.453 207.953 489.992 192.5 489.992C177.047 489.992 162.434 482.449 148.539 470.656C132.437 457.008 117.582 437.687 104.16 415.41C62.406 346.023 35 248.21 35 192.5C35 105.578 105.578 35 192.5 35V35ZM192.5 43.75C110.406 43.75 43.75 110.406 43.75 192.5C43.75 274.594 110.406 341.25 192.5 341.25C274.594 341.25 341.25 274.594 341.25 192.5C341.25 110.406 274.594 43.75 192.5 43.75ZM192.5 78.75C255.273 78.75 306.25 129.727 306.25 192.5C306.25 255.273 255.273 306.25 192.5 306.25C129.727 306.25 78.75 255.273 78.75 192.5C78.75 129.727 129.727 78.75 192.5 78.75Z" fill="#725BFF"/>
</svg>
