<svg width="514" height="467" viewBox="0 0 514 467" fill="none" xmlns="http://www.w3.org/2000/svg">
<path d="M86.4683 170.096C82.0972 165.752 76.1833 163.311 70.0193 163.311C63.8552 163.311 57.9413 165.752 53.5703 170.096L6.9023 216.764C2.4882 221.147 0 227.108 0 233.33C0 239.552 2.4883 245.514 6.9023 249.896L53.5703 296.564C59.5781 301.708 67.7813 303.458 75.3633 301.216C82.9492 298.974 88.8793 293.04 91.1213 285.458C93.3674 277.872 91.6135 269.669 86.469 263.661L79.469 256.661H326.569C334.905 256.661 342.608 252.216 346.776 244.997C350.944 237.779 350.944 228.88 346.776 221.661C342.608 214.442 334.905 209.997 326.569 209.997H79.469L86.2385 203.228C90.6838 198.88 93.2112 192.935 93.2541 186.712C93.301 180.489 90.8557 174.509 86.4689 170.095L86.4683 170.096Z" fill="white"/>
<path d="M163.238 279.996C157.047 279.996 151.113 282.453 146.738 286.828C142.363 291.203 139.902 297.14 139.902 303.328V396.66C139.902 415.226 147.277 433.031 160.406 446.16C173.535 459.285 191.34 466.66 209.902 466.66H443.242C461.804 466.66 479.609 459.285 492.738 446.16C505.867 433.031 513.242 415.226 513.242 396.66V70C513.242 51.434 505.867 33.629 492.738 20.5C479.609 7.375 461.804 0 443.242 0H209.902C191.34 0 173.535 7.375 160.406 20.5C147.277 33.629 139.902 51.434 139.902 70V163.332C139.902 171.668 144.352 179.371 151.57 183.539C158.789 187.707 167.683 187.707 174.902 183.539C182.121 179.371 186.57 171.668 186.57 163.332V70C186.57 63.8086 189.027 57.875 193.406 53.5C197.781 49.125 203.715 46.6641 209.902 46.6641H443.242C449.43 46.6641 455.363 49.125 459.738 53.5C464.117 57.875 466.574 63.809 466.574 70V396.66C466.574 402.851 464.117 408.785 459.738 413.16C455.363 417.535 449.429 419.996 443.242 419.996H209.902C203.715 419.996 197.781 417.535 193.406 413.16C189.027 408.785 186.57 402.851 186.57 396.66V303.328C186.57 297.141 184.113 291.203 179.734 286.828C175.359 282.453 169.425 279.996 163.238 279.996H163.238Z" fill="white"/>
</svg>
