<svg width="537" height="537" viewBox="0 0 537 537" fill="none" xmlns="http://www.w3.org/2000/svg">
<path fill-rule="evenodd" clip-rule="evenodd" d="M183.14 183.14V52.23C183.14 23.8 206.281 0 235.37 0H302.147C330.577 0 354.377 23.801 354.377 52.23V183.14H485.287C513.717 183.14 536.857 206.281 536.857 235.37V302.147C536.857 330.577 513.716 354.377 485.287 354.377H354.377V485.287C354.377 513.717 330.576 536.857 302.147 536.857H235.37C206.28 536.857 183.14 513.716 183.14 485.287V354.377H52.23C23.8 354.377 0 330.576 0 302.147V235.37C0 206.28 23.801 183.14 52.23 183.14H183.14ZM22.48 225.452C27.7691 221.483 34.382 218.839 41.652 218.839H193.062V203.632H52.232C38.349 203.632 26.447 212.889 22.478 225.448L22.48 225.452ZM205.62 42.312C210.909 38.3432 217.522 35.6987 224.792 35.6987H291.569C308.76 35.6987 322.643 50.2457 322.643 67.4327V218.843H474.053C491.905 218.843 505.787 232.726 505.787 250.577V317.354C505.787 320.658 505.127 323.967 504.463 327.272C511.736 321.322 516.365 312.065 516.365 302.147V235.37C516.365 218.179 502.482 203.636 485.291 203.636H333.881V52.2257C333.881 35.0347 319.334 20.4917 302.147 20.4917H235.37C221.487 20.4917 209.585 29.7495 205.616 42.3077L205.62 42.312ZM333.89 348.432H322.652V499.842C322.652 503.811 321.992 507.115 321.328 509.76C328.601 504.471 333.89 495.213 333.89 485.299L333.89 348.432Z" fill="#7D7D7D"/>
</svg>
