<svg width="505" height="371" viewBox="0 0 505 371" fill="none" xmlns="http://www.w3.org/2000/svg">
<path d="M346.821 158.653C332.016 158.653 318.102 164.442 307.653 174.973C286.282 196.551 286.43 231.512 307.993 252.93C318.427 263.219 332.22 268.883 346.813 268.883C361.653 268.883 375.547 263.075 385.918 252.559C407.316 231.02 407.188 196.059 385.621 174.618C375.25 164.325 361.469 158.653 346.82 158.653H346.821ZM374.364 241.122C367.051 248.536 357.266 252.626 346.817 252.626C336.52 252.626 326.786 248.622 319.426 241.368C304.235 226.282 304.133 201.63 319.192 186.415C326.563 178.993 336.368 174.907 346.813 174.907C357.145 174.907 366.86 178.907 374.165 186.145C389.368 201.274 389.47 225.918 374.364 241.122H374.364Z" fill="#725BFF"/>
<path d="M503.861 201.173C503.861 197.169 502.287 193.4 499.435 190.571C496.799 187.95 493.365 186.438 489.697 186.259L460.275 181.028C458.646 175.376 456.58 169.829 454.111 164.462C454.365 164.189 454.591 163.896 454.806 163.583L472.826 137.337C475.279 134.583 476.607 131.064 476.584 127.341C476.56 123.322 474.967 119.564 472.15 116.814L448.916 93.7322C443.233 88.1775 434.221 88.0408 428.42 93.2713L403.904 110.373C398.752 107.522 393.365 105.049 387.826 103.002C387.811 102.643 387.772 102.279 387.701 101.92L381.904 70.5491C381.385 62.76 374.83 56.5612 366.9 56.5612H366.877L346.791 56.651L334.123 56.6862C326.228 56.7877 319.744 63.0533 319.299 70.8311L314.096 100.3C308.44 101.929 302.889 103.992 297.526 106.437C297.245 106.183 296.948 105.949 296.639 105.73L270.346 87.6988C264.467 82.5621 255.455 82.8043 249.862 88.4098L226.839 111.633C224.023 114.457 222.476 118.207 222.495 122.195C222.499 125.906 223.855 129.417 226.327 132.164L243.429 156.66C240.578 161.816 238.105 167.211 236.054 172.754C235.683 172.769 235.32 172.808 234.953 172.882L203.683 178.711C200.011 178.921 196.589 180.453 193.98 183.074C191.155 185.906 189.612 189.672 189.628 193.679L189.745 226.433C189.819 234.347 196.085 240.835 203.886 241.273L233.331 246.488C234.945 252.07 237.011 257.625 239.503 263.086C239.261 263.355 239.034 263.64 238.831 263.937L220.784 290.203C218.347 292.93 217.026 296.418 217.038 300.133C217.054 304.172 218.64 307.945 221.472 310.723L244.683 333.785C247.507 336.562 251.234 338.09 255.199 338.09H255.265C258.984 338.074 262.476 336.719 265.21 334.254L289.714 317.152C294.89 320.019 300.269 322.484 305.796 324.511C305.812 324.874 305.859 325.238 305.925 325.609L311.734 356.953C312.234 364.758 318.773 370.976 326.73 370.976L346.855 370.886L359.445 370.847C367.386 370.792 373.875 364.519 374.3 356.695L379.527 327.226C385.304 325.57 390.867 323.515 396.132 321.081C396.405 321.328 396.698 321.562 396.999 321.769L423.241 339.777C425.963 342.214 429.44 343.539 433.12 343.546H433.143C437.143 343.546 440.905 341.988 443.768 339.128L466.768 315.917C469.592 313.093 471.143 309.343 471.131 305.351C471.128 301.641 469.772 298.129 467.307 295.383L450.178 270.879C453.018 265.738 455.491 260.352 457.577 254.789C457.94 254.773 458.299 254.734 458.659 254.66L489.956 248.832C493.651 248.621 497.084 247.074 499.706 244.425C502.518 241.586 504.045 237.824 504.003 233.882L503.861 201.173ZM487.568 232.716L456.24 238.552C451.431 238.861 446.927 241.341 444.052 245.298C443.591 245.927 443.228 246.619 442.966 247.361C440.529 254.232 437.404 260.802 433.669 266.9C432.325 269.083 432.103 271.771 433.048 274.157C433.755 275.927 434.779 277.591 436.033 279.025L454.309 305.17C454.337 305.213 454.364 305.248 454.395 305.295L433.071 326.815C433.028 326.78 432.982 326.752 432.943 326.725L406.658 308.682C402.993 305.467 398.161 304.049 393.318 304.795C392.505 304.92 391.716 305.166 390.978 305.518C384.689 308.576 377.841 311.01 370.634 312.752C368.075 313.373 365.974 315.19 365.001 317.623C364.255 319.479 363.849 321.256 363.747 323.061L358.185 354.42C358.181 354.471 358.169 354.525 358.157 354.576L346.79 354.611H346.778L327.848 354.697C327.845 354.646 327.833 354.596 327.821 354.545L322.013 323.209C321.72 318.389 319.337 313.986 315.364 311.029C314.692 310.529 313.954 310.134 313.157 309.865C306.376 307.525 299.817 304.423 293.657 300.63C291.466 299.283 288.759 299.044 286.372 300.001C284.548 300.728 282.911 301.755 281.501 303.037L255.396 321.256C255.345 321.295 255.302 321.33 255.251 321.361L233.751 300.009C233.775 299.97 233.794 299.943 233.818 299.908L251.888 273.603C255.075 269.97 256.513 265.024 255.747 260.22C255.622 259.454 255.388 258.7 255.052 257.997C251.86 251.321 249.419 244.477 247.79 237.657C247.2 235.2 245.505 233.149 243.192 232.118C241.337 231.294 239.423 230.817 237.497 230.712L206.13 225.169C206.079 225.157 206.029 225.145 205.978 225.141L205.872 194.84C205.927 194.828 205.989 194.817 206.044 194.805L237.349 188.977C242.177 188.668 246.697 186.188 249.568 182.235C250.033 181.598 250.396 180.891 250.662 180.145C253.049 173.325 256.166 166.75 259.931 160.614C261.271 158.434 261.498 155.747 260.56 153.36C259.838 151.536 258.818 149.895 257.525 148.469L239.302 122.379C239.267 122.329 239.24 122.29 239.208 122.247L260.548 100.72C260.587 100.747 260.627 100.774 260.666 100.806L286.92 118.81C290.537 122.036 295.494 123.513 300.338 122.731C301.111 122.606 301.865 122.372 302.576 122.032C309.099 118.903 315.955 116.466 322.947 114.774C325.373 114.192 327.392 112.524 328.435 110.255C329.259 108.458 329.74 106.474 329.845 104.485L335.385 73.1024C335.396 73.0517 335.4 73.0009 335.412 72.9501L346.826 72.9227H346.841L365.763 72.8368C365.767 72.8798 365.775 72.9149 365.787 72.9618L371.584 104.333C371.896 109.192 374.389 113.723 378.349 116.563C378.982 117.016 379.678 117.379 380.412 117.633C387.24 120.02 393.814 123.145 399.943 126.91C402.201 128.301 404.982 128.5 407.404 127.457C409.13 126.719 410.693 125.727 412.064 124.5L438.201 106.273C438.252 106.234 438.295 106.207 438.346 106.168L459.838 127.527C459.81 127.566 459.783 127.601 459.752 127.644L441.725 153.902C438.533 157.488 437.103 162.281 437.799 167.179C437.916 168.007 438.162 168.82 438.525 169.577C441.666 176.089 444.115 182.929 445.787 189.905C446.369 192.335 448.037 194.358 450.31 195.398C452.135 196.226 454.072 196.702 456.088 196.804L487.432 202.37C487.483 202.382 487.533 202.394 487.588 202.398L487.713 232.695C487.674 232.695 487.627 232.706 487.569 232.714L487.568 232.716Z" fill="#725BFF"/>
<path d="M188.531 158.973L178.25 144.285C179.609 141.68 180.824 139.012 181.894 136.293L201.671 132.629C208.206 132.148 213.374 126.672 213.374 119.961L213.249 98.3319C213.234 94.9217 211.882 91.7342 209.452 89.3553C207.269 87.2147 204.445 85.9686 201.421 85.7811L183.816 82.6444C182.949 79.8514 181.933 77.1132 180.781 74.4647L192.176 57.8557C194.153 55.5549 195.227 52.6487 195.215 49.5784C195.203 46.1917 193.867 43.0081 191.473 40.6409L176.125 25.3909C173.734 23.0237 170.387 21.7737 167.191 21.7386C164.113 21.762 161.203 22.8636 158.91 24.8792L144.222 35.1212C141.624 33.754 138.964 32.5353 136.253 31.465L132.574 11.715C132.093 5.1759 126.609 0 119.902 0L106.609 0.0742188L98.3313 0.101562C91.6672 0.101562 86.1903 5.32036 85.7373 11.9026L82.6084 29.5196C79.8193 30.375 77.0811 31.3946 74.4053 32.5704L57.8233 21.1834C55.5381 19.2068 52.6592 18.1365 49.6085 18.1365H49.5343C46.1359 18.1599 42.9562 19.5037 40.6124 21.8904L25.3744 37.2304C20.7142 41.9609 20.5346 49.5004 24.8353 54.4454L35.1053 69.1334C33.7459 71.7193 32.5233 74.3795 31.4608 77.0904L11.6878 80.7701C8.65661 80.9927 5.84801 82.2779 3.68391 84.4615C1.28551 86.8638 -0.0230915 90.0631 0.000308475 93.4498L0.0784335 115.087C0.101871 118.485 1.43783 121.665 3.85183 124.036C6.03543 126.188 8.85963 127.442 11.8948 127.626L29.5118 130.751C30.3868 133.555 31.4063 136.302 32.5704 138.977L21.1794 155.547C19.1755 157.875 18.0935 160.805 18.1169 163.907C18.1443 167.293 19.4958 170.458 21.8708 172.778L37.2148 187.993C41.9023 192.641 49.4568 192.848 54.4178 188.591L69.1128 178.286C71.6948 179.653 74.3667 180.868 77.105 181.942L80.7495 201.754C81.3081 208.262 86.7847 213.387 93.3045 213.387H93.4373L106.726 213.324L115.105 213.301C121.765 213.215 127.183 208.004 127.605 201.5L130.734 183.871C133.5 183.007 136.238 181.996 138.933 180.82L155.546 192.222C160.531 196.484 168.069 196.226 172.737 191.523L188.003 176.168C192.628 171.457 192.808 163.918 188.531 158.973L188.531 158.973ZM163.363 177.879L147.945 167.301C145.003 164.77 141.152 163.633 137.183 164.141C136.327 164.254 135.491 164.5 134.714 164.868C130.526 166.883 126.187 168.43 121.823 169.465C119.276 170.071 117.171 171.868 116.178 174.293C115.62 175.661 115.276 177.086 115.155 178.551L111.874 197.055L106.659 197.071H106.643L96.4285 197.122L93.034 178.692C92.7215 174.738 90.7332 171.164 87.5067 168.797C86.8504 168.317 86.1278 167.934 85.3544 167.672C81.0185 166.172 76.87 164.195 73.0304 161.82C70.8116 160.453 68.0812 160.219 65.6671 161.211C64.2999 161.77 62.9952 162.567 61.8663 163.524L46.4873 174.297L35.5073 163.41L46.1123 147.972C48.7061 144.94 49.8232 140.995 49.2021 137.011C49.0771 136.222 48.8427 135.452 48.495 134.737C46.5302 130.643 44.9794 126.307 43.8973 121.835C43.2879 119.331 41.534 117.261 39.1551 116.265C37.6981 115.648 36.2137 115.284 34.7489 115.179L16.3189 111.913L16.2642 96.4684L34.6392 93.0465C38.604 92.7731 42.2994 90.7184 44.6512 87.4449C45.1122 86.8121 45.4677 86.1129 45.7255 85.3746C47.2216 81.0855 49.1902 76.9293 51.5887 73.0266C52.9051 70.8743 53.1551 68.2454 52.2606 65.8938C51.7059 64.425 50.9012 63.0774 49.8544 61.8743L39.1084 46.5033L49.9954 35.5503L65.4134 46.1363C68.3978 48.7066 72.4368 49.859 76.3664 49.2652C77.1711 49.1363 77.9562 48.8902 78.6906 48.5308C82.7804 46.5308 87.0734 45.0074 91.4676 43.9956C94.0926 43.3901 96.2567 41.519 97.2254 39.0073C97.7684 37.6089 98.0926 36.1948 98.1903 34.8198L101.468 16.3748L106.694 16.3592H106.71L116.898 16.3045L120.324 34.7225C120.617 38.6756 122.671 42.3553 125.929 44.6913C126.558 45.1405 127.245 45.5038 127.972 45.7538C132.249 47.2538 136.417 49.2382 140.367 51.6405C142.437 52.9061 144.969 53.1757 147.262 52.3749C148.875 51.8163 150.324 50.9687 151.578 49.8437L166.898 39.1637L177.839 50.0387L167.265 65.4487C164.699 68.394 163.523 72.3979 164.105 76.3397C164.222 77.1561 164.468 77.9569 164.827 78.6991C166.8 82.7655 168.339 87.1053 169.409 91.5901C170.027 94.1604 171.851 96.2698 174.308 97.2503C175.726 97.8167 177.163 98.1526 178.597 98.2464L196.999 101.535L197.085 116.953L178.651 120.375C174.709 120.684 171.034 122.735 168.694 125.965C168.233 126.598 167.866 127.305 167.608 128.043C166.108 132.332 164.131 136.52 161.741 140.481C160.448 142.614 160.213 145.223 161.092 147.559C161.67 149.087 162.487 150.454 163.518 151.637L174.229 166.953L163.363 177.879Z" fill="#725BFF"/>
<path d="M106.671 67.5232C96.1545 67.5232 86.2755 71.6209 78.8345 79.0932C63.6465 94.4602 63.7525 119.323 79.0806 134.538C86.4595 141.851 96.2606 145.878 106.671 145.878C117.21 145.878 127.093 141.773 134.519 134.296C141.894 126.855 145.933 116.98 145.882 106.491C145.831 96.0302 141.706 86.2182 134.288 78.8892C126.905 71.5572 117.097 67.5222 106.671 67.5222L106.671 67.5232ZM122.98 122.843C118.64 127.21 112.851 129.621 106.671 129.621C100.573 129.621 94.8385 127.261 90.5295 122.996C81.5568 114.085 81.4983 99.5185 90.3733 90.5425C94.7171 86.1792 100.502 83.7769 106.67 83.7769C112.776 83.7769 118.514 86.1363 122.842 90.4371C127.182 94.7262 129.588 100.46 129.623 106.578C129.647 112.715 127.291 118.492 122.979 122.844L122.98 122.843Z" fill="#725BFF"/>
</svg>
