<svg width="840" height="1079" viewBox="0 0 840 1079" fill="none" xmlns="http://www.w3.org/2000/svg">
<path d="M377.14 308.58C462.855 308.58 531.43 240.01 531.43 154.29C531.43 68.575 462.86 0 377.14 0C291.425 0 222.85 68.57 222.85 154.29C222.85 240.001 291.42 308.58 377.14 308.58ZM377.14 49.72C433.71 49.72 480 96.005 480 152.58C480 209.15 433.715 255.44 377.14 255.44C320.57 255.44 274.28 209.155 274.28 152.58C274.276 96.01 318.85 49.72 377.14 49.72Z" fill="#725BFF"/>
<path d="M809.14 708.01C752.566 469.72 514.28 320.58 276 375.44C161.14 402.87 61.71 473.155 0 574.3L44.57 601.73C159.43 418.3 401.14 361.73 584.57 474.87C673.715 529.725 735.43 617.16 759.43 718.3C783.43 819.44 766.285 925.73 711.43 1014.87L756 1042.3C816.004 942.87 834.863 822.87 809.148 708.01H809.14Z" fill="#725BFF"/>
<path d="M396.14 344.58C481.855 344.58 550.43 276.01 550.43 190.29C550.43 104.575 481.86 36 396.14 36C310.425 36 241.85 104.57 241.85 190.29C241.85 276.001 310.42 344.58 396.14 344.58ZM396.14 85.72C452.71 85.72 499 132.005 499 188.58C499 245.15 452.715 291.44 396.14 291.44C339.57 291.44 293.28 245.155 293.28 188.58C293.276 132.01 337.85 85.72 396.14 85.72Z" fill="#FAFF00"/>
<path d="M828.14 744.01C771.566 505.72 533.28 356.58 295 411.44C180.14 438.87 80.71 509.155 19 610.3L63.57 637.73C178.43 454.3 420.14 397.73 603.57 510.87C692.715 565.725 754.43 653.16 778.43 754.3C802.43 855.44 785.285 961.73 730.43 1050.87L775 1078.3C835.004 978.87 853.863 858.87 828.148 744.01H828.14Z" fill="#FAFF00"/>
</svg>
