<svg width="443" height="393" viewBox="0 0 443 393" fill="none" xmlns="http://www.w3.org/2000/svg">
<path d="M61.6024 392.008C89.5904 392.008 113.36 372.938 120.75 347.207L442.4 347.207V313.605L120.75 313.605C113.344 287.894 89.5744 268.804 61.6024 268.804C27.7824 268.804 0.000396729 296.581 0.000396729 330.406C0.000396729 364.226 27.7774 392.008 61.6024 392.008ZM61.6024 358.406C45.9384 358.406 33.6024 346.07 33.6024 330.406C33.6024 314.742 45.9384 302.406 61.6024 302.406C77.2664 302.406 89.6024 314.742 89.6024 330.406C89.6024 346.07 77.2664 358.406 61.6024 358.406ZM296.802 257.606C324.79 257.606 348.56 238.536 355.95 212.805L442.399 212.805V179.203L355.95 179.203C348.544 153.492 324.774 134.402 296.802 134.402C268.825 134.402 245.06 153.492 237.654 179.203L0.504395 179.277V212.879L237.654 212.805C245.049 238.535 268.814 257.606 296.802 257.606V257.606ZM296.802 224.004C281.138 224.004 268.802 211.668 268.802 196.004C268.802 180.34 281.138 168.004 296.802 168.004C312.466 168.004 324.802 180.34 324.802 196.004C324.802 211.668 312.466 224.004 296.802 224.004ZM151.202 123.204C179.19 123.204 202.96 104.134 210.35 78.403L442.4 78.403V44.801L210.35 44.801C202.944 19.09 179.174 0 151.202 0C123.225 0 99.4604 19.09 92.0544 44.801L0.503387 44.8752V78.4772L92.0544 78.403C99.4489 104.133 123.214 123.204 151.202 123.204ZM151.202 89.602C135.538 89.602 123.202 77.266 123.202 61.602C123.202 45.938 135.538 33.602 151.202 33.602C166.866 33.602 179.202 45.938 179.202 61.602C179.202 77.266 166.866 89.602 151.202 89.602Z" fill="#7D7D7D"/>
</svg>
