<svg width="488" height="202" viewBox="0 0 488 202" fill="none" xmlns="http://www.w3.org/2000/svg">
<path d="M331.846 102.15L218.756 10.4939L199.068 201.244H467.588L487.166 10.8239L344.646 102.808C340.599 105.323 335.459 105.105 331.849 102.152L331.846 102.15Z" fill="#7D7D7D"/>
<path d="M463.196 0H240.726L339.382 79.953L463.196 0Z" fill="#7D7D7D"/>
<path d="M44.1861 111.56H125.561C131.577 111.56 136.499 106.638 136.499 100.622C136.499 94.606 131.577 89.6841 125.561 89.6841H44.1861C38.1705 89.6841 33.248 94.606 33.248 100.622C33.248 106.638 38.0606 111.56 44.1861 111.56Z" fill="#7D7D7D"/>
<path d="M136.496 173.24C136.496 167.224 131.574 162.302 125.558 162.302H10.938C4.9224 162.302 0 167.224 0 173.24C0 179.256 4.9219 184.178 10.938 184.178H125.558C131.574 184.178 136.496 179.365 136.496 173.24Z" fill="#7D7D7D"/>
<path d="M79.5161 38.9299H125.563C131.579 38.9299 136.501 34.008 136.501 27.9919C136.501 21.9758 131.579 17.054 125.563 17.054H79.5161C73.5005 17.054 68.5781 21.9758 68.5781 27.9919C68.5781 34.008 73.5 38.9299 79.5161 38.9299Z" fill="#7D7D7D"/>
</svg>
